<svg width="24px" height="24px" viewBox="0 0 24 24" fill="none" xmlns="http://www.w3.org/2000/svg">
<path fill-rule="evenodd" clip-rule="evenodd" d="M8.24997 13C8.24997 10.9289 9.92891 9.25 12 9.25C14.071 9.25 15.75 10.9289 15.75 13C15.75 15.0711 14.071 16.75 12 16.75C9.92891 16.75 8.24997 15.0711 8.24997 13ZM12 10.75C10.7573 10.75 9.74997 11.7574 9.74997 13C9.74997 14.2426 10.7573 15.25 12 15.25C13.2426 15.25 14.25 14.2426 14.25 13C14.25 11.7574 13.2426 10.75 12 10.75Z" fill="black"/>
<path fill-rule="evenodd" clip-rule="evenodd" d="M10.6161 5.75C9.57094 5.75 8.72366 6.59728 8.72366 7.64245C8.72366 8.30841 8.21243 8.86283 7.54866 8.91674L5.31906 9.09782C4.88129 9.13337 4.52126 9.45709 4.43955 9.88864C3.99081 12.2586 3.95735 14.6886 4.34066 17.0701L4.43791 17.6743C4.52976 18.2449 4.99939 18.679 5.57545 18.7258L7.51777 18.8835C10.501 19.1258 13.4989 19.1258 16.4822 18.8835L18.4245 18.7258C19.0006 18.679 19.4702 18.2449 19.562 17.6743L19.6593 17.0701C20.0426 14.6886 20.0091 12.2586 19.5604 9.88864C19.4787 9.45709 19.1187 9.13337 18.6809 9.09782L16.4513 8.91674C15.7875 8.86284 15.2763 8.30841 15.2763 7.64245C15.2763 6.59728 14.429 5.75 13.3838 5.75H10.6161ZM7.22973 7.4377C7.33559 5.65944 8.81125 4.25 10.6161 4.25H13.3838C15.1887 4.25 16.6644 5.65944 16.7702 7.4377L18.8023 7.60274C19.9132 7.69296 20.8269 8.51446 21.0342 9.60958C21.5153 12.1503 21.5512 14.7554 21.1402 17.3084L21.043 17.9126C20.8414 19.1652 19.8104 20.1182 18.5459 20.2209L16.6036 20.3786C13.5396 20.6274 10.4604 20.6274 7.39635 20.3786L5.45403 20.2209C4.1895 20.1182 3.15858 19.1652 2.95697 17.9126L2.85972 17.3084C2.44879 14.7554 2.48466 12.1503 2.96574 9.60958C3.17309 8.51446 4.08672 7.69296 5.19764 7.60274L7.22973 7.4377Z" fill="black"/>
</svg>
